<svg width="20" height="20" viewBox="0 0 20 20" fill="none"
    xmlns="http://www.w3.org/2000/svg">
    <path d="M10 20C15.5228 20 20 15.5228 20 10C20 4.47715 15.5228 0 10 0C4.47715 0 0 4.47715 0 10C0 15.5228 4.47715 20 10 20Z" fill="url(#paint0_linear_10936_11)" />
    <path fill-rule="evenodd" clip-rule="evenodd" d="M4.5266 9.89444C7.4418 8.62433 9.38573 7.787 10.3584 7.38244C13.1355 6.22735 13.7125 6.02669 14.0887 6.02007C14.1714 6.01861 14.3563 6.03911 14.4762 6.13633C14.5773 6.21842 14.6052 6.32931 14.6185 6.40714C14.6318 6.48498 14.6484 6.66228 14.6352 6.80081C14.4847 8.38205 13.8335 12.2193 13.5022 13.9903C13.3621 14.7397 13.0861 14.9909 12.8188 15.0155C12.2381 15.069 11.7972 14.6318 11.2347 14.2631C10.3546 13.6861 9.85735 13.327 9.00303 12.764C8.01572 12.1134 8.65575 11.7558 9.21842 11.1714C9.36567 11.0184 11.9243 8.69113 11.9739 8.48001C11.98 8.4536 11.9858 8.35518 11.9273 8.30321C11.8689 8.25124 11.7826 8.26901 11.7203 8.28314C11.632 8.30318 10.226 9.2325 7.50222 11.0711C7.10313 11.3452 6.74164 11.4787 6.41776 11.4717C6.06071 11.464 5.37388 11.2698 4.8633 11.1038C4.23705 10.9003 3.73932 10.7926 3.78266 10.4469C3.80524 10.2668 4.05321 10.0827 4.5266 9.89444Z" fill="white" />
    <defs>
        <linearGradient id="paint0_linear_10936_11" x1="10" y1="0" x2="10" y2="19.8517" gradientUnits="userSpaceOnUse">
            <stop stop-color="#2AABEE" />
            <stop offset="1" stop-color="#229ED9" />
        </linearGradient>
    </defs>
</svg>